HIERARCHY
ROOT Hips
{
  OFFSET -0.00863835 104.059 1.6015
  CHANNELS 6 Xposition Yposition Zposition Zrotation Xrotation Yrotation
  JOINT Spine
  {
    OFFSET 0 10.1816 0.1315
    CHANNELS 6 Xposition Yposition Zposition Zrotation Xrotation Yrotation
    JOINT Spine1
    {
      OFFSET 0 10.0835 -1.0008
      CHANNELS 6 Xposition Yposition Zposition Zrotation Xrotation Yrotation
      JOINT Spine2
      {
        OFFSET 0 9.1 -1.3734
        CHANNELS 6 Xposition Yposition Zposition Zrotation Xrotation Yrotation
        JOINT Neck
        {
          OFFSET 0 16.6717 -2.5162
          CHANNELS 6 Xposition Yposition Zposition Zrotation Xrotation Yrotation
          JOINT Head
          {
            OFFSET 0 9.6179 1.685
            CHANNELS 6 Xposition Yposition Zposition Zrotation Xrotation Yrotation
            JOINT HeadTop_End
            {
              OFFSET 0 17.8152 2.585
              CHANNELS 6 Xposition Yposition Zposition Zrotation Xrotation Yrotation
              End Site
              {
                OFFSET 0 0 0
              }
            }
            JOINT LeftEye
            {
              OFFSET 3.0676 6.4095 9.2836
              CHANNELS 6 Xposition Yposition Zposition Zrotation Xrotation Yrotation
              End Site
              {
                OFFSET 0 0 0
              }
            }
            JOINT RightEye
            {
              OFFSET -3.0676 6.4095 9.2835
              CHANNELS 6 Xposition Yposition Zposition Zrotation Xrotation Yrotation
              End Site
              {
                OFFSET 0 0 0
              }
            }
          }
        }
        JOINT LeftShoulder
        {
          OFFSET 4.5704 10.946 -2.628
          CHANNELS 6 Xposition Yposition Zposition Zrotation Xrotation Yrotation
          JOINT LeftArm
          {
            OFFSET 10.5924 -0.5246 -2.2321
            CHANNELS 6 Xposition Yposition Zposition Zrotation Xrotation Yrotation
            JOINT LeftForeArm
            {
              OFFSET 27.8415 -0.0001 0
              CHANNELS 6 Xposition Yposition Zposition Zrotation Xrotation Yrotation
              JOINT LeftHand
              {
                OFFSET 28.3288 0 0
                CHANNELS 6 Xposition Yposition Zposition Zrotation Xrotation Yrotation
                JOINT LeftHandThumb1
                {
                  OFFSET 2.4661 -1.575 2.6824
                  CHANNELS 6 Xposition Yposition Zposition Zrotation Xrotation Yrotation
                  JOINT LeftHandThumb2
                  {
                    OFFSET 3.2298 -1.8647 1.8647
                    CHANNELS 6 Xposition Yposition Zposition Zrotation Xrotation Yrotation
                    JOINT LeftHandThumb3
                    {
                      OFFSET 2.6526 -1.5315 1.5315
                      CHANNELS 6 Xposition Yposition Zposition Zrotation Xrotation Yrotation
                      End Site
                      {
                        OFFSET 1.9546 -1.1285 1.1285
                      }
                    }
                  }
                }
                JOINT LeftHandIndex1
                {
                  OFFSET 9.1093 -0.5171 2.2601
                  CHANNELS 6 Xposition Yposition Zposition Zrotation Xrotation Yrotation
                  JOINT LeftHandIndex2
                  {
                    OFFSET 3.6764 0 0
                    CHANNELS 6 Xposition Yposition Zposition Zrotation Xrotation Yrotation
                    JOINT LeftHandIndex3
                    {
                      OFFSET 2.8831 0 0
                      CHANNELS 6 Xposition Yposition Zposition Zrotation Xrotation Yrotation
                      End Site
                      {
                        OFFSET 2.3927 0 0
                      }
                    }
                  }
                }
                JOINT LeftHandMiddle1
                {
                  OFFSET 9.5334 0 0
                  CHANNELS 6 Xposition Yposition Zposition Zrotation Xrotation Yrotation
                  JOINT LeftHandMiddle2
                  {
                    OFFSET 3.6982 0 0
                    CHANNELS 6 Xposition Yposition Zposition Zrotation Xrotation Yrotation
                    JOINT LeftHandMiddle3
                    {
                      OFFSET 2.9509 0 0
                      CHANNELS 6 Xposition Yposition Zposition Zrotation Xrotation Yrotation
                      End Site
                      {
                        OFFSET 2.8339 0 0
                      }
                    }
                  }
                }
                JOINT LeftHandRing1
                {
                  OFFSET 9.1045 -0.0439 -1.8651
                  CHANNELS 6 Xposition Yposition Zposition Zrotation Xrotation Yrotation
                  JOINT LeftHandRing2
                  {
                    OFFSET 3.154 0 0
                    CHANNELS 6 Xposition Yposition Zposition Zrotation Xrotation Yrotation
                    JOINT LeftHandRing3
                    {
                      OFFSET 2.9377 0 0
                      CHANNELS 6 Xposition Yposition Zposition Zrotation Xrotation Yrotation
                      End Site
                      {
                        OFFSET 2.6475 0 0
                      }
                    }
                  }
                }
                JOINT LeftHandPinky1
                {
                  OFFSET 8.0778 -0.4887 -3.8061
                  CHANNELS 6 Xposition Yposition Zposition Zrotation Xrotation Yrotation
                  JOINT LeftHandPinky2
                  {
                    OFFSET 3.6 0 0
                    CHANNELS 6 Xposition Yposition Zposition Zrotation Xrotation Yrotation
                    JOINT LeftHandPinky3
                    {
                      OFFSET 2.1142 0 0
                      CHANNELS 6 Xposition Yposition Zposition Zrotation Xrotation Yrotation
                      End Site
                      {
                        OFFSET 1.9757 0 0
                      }
                    }
                  }
                }
              }
            }
          }
        }
        JOINT RightShoulder
        {
          OFFSET -4.57 10.9462 -2.628
          CHANNELS 6 Xposition Yposition Zposition Zrotation Xrotation Yrotation
          JOINT RightArm
          {
            OFFSET -10.5928 -0.5248 -2.2321
            CHANNELS 6 Xposition Yposition Zposition Zrotation Xrotation Yrotation
            JOINT RightForeArm
            {
              OFFSET -27.8415 0 0
              CHANNELS 6 Xposition Yposition Zposition Zrotation Xrotation Yrotation
              JOINT RightHand
              {
                OFFSET -28.3288 0 0.0001
                CHANNELS 6 Xposition Yposition Zposition Zrotation Xrotation Yrotation
                JOINT RightHandPinky1
                {
                  OFFSET -8.0767 -0.4885 -3.806
                  CHANNELS 6 Xposition Yposition Zposition Zrotation Xrotation Yrotation
                  JOINT RightHandPinky2
                  {
                    OFFSET -3.6 0 0.0001
                    CHANNELS 6 Xposition Yposition Zposition Zrotation Xrotation Yrotation
                    JOINT RightHandPinky3
                    {
                      OFFSET -2.1142 0 0
                      CHANNELS 6 Xposition Yposition Zposition Zrotation Xrotation Yrotation
                      End Site
                      {
                        OFFSET -1.9757 0 0
                      }
                    }
                  }
                }
                JOINT RightHandRing1
                {
                  OFFSET -9.1036 -0.0439 -1.8651
                  CHANNELS 6 Xposition Yposition Zposition Zrotation Xrotation Yrotation
                  JOINT RightHandRing2
                  {
                    OFFSET -3.154 0 0
                    CHANNELS 6 Xposition Yposition Zposition Zrotation Xrotation Yrotation
                    JOINT RightHandRing3
                    {
                      OFFSET -2.9377 0 0
                      CHANNELS 6 Xposition Yposition Zposition Zrotation Xrotation Yrotation
                      End Site
                      {
                        OFFSET -2.6475 0 0
                      }
                    }
                  }
                }
                JOINT RightHandMiddle1
                {
                  OFFSET -9.5325 0 0
                  CHANNELS 6 Xposition Yposition Zposition Zrotation Xrotation Yrotation
                  JOINT RightHandMiddle2
                  {
                    OFFSET -3.6982 0 0
                    CHANNELS 6 Xposition Yposition Zposition Zrotation Xrotation Yrotation
                    JOINT RightHandMiddle3
                    {
                      OFFSET -2.9509 0 0
                      CHANNELS 6 Xposition Yposition Zposition Zrotation Xrotation Yrotation
                      End Site
                      {
                        OFFSET -2.8339 0 0.0001
                      }
                    }
                  }
                }
                JOINT RightHandIndex1
                {
                  OFFSET -9.1083 -0.5168 2.2601
                  CHANNELS 6 Xposition Yposition Zposition Zrotation Xrotation Yrotation
                  JOINT RightHandIndex2
                  {
                    OFFSET -3.6764 0 0
                    CHANNELS 6 Xposition Yposition Zposition Zrotation Xrotation Yrotation
                    JOINT RightHandIndex3
                    {
                      OFFSET -2.8831 0 0
                      CHANNELS 6 Xposition Yposition Zposition Zrotation Xrotation Yrotation
                      End Site
                      {
                        OFFSET -2.3927 0 0
                      }
                    }
                  }
                }
                JOINT RightHandThumb1
                {
                  OFFSET -2.4648 -1.5727 2.6826
                  CHANNELS 6 Xposition Yposition Zposition Zrotation Xrotation Yrotation
                  JOINT RightHandThumb2
                  {
                    OFFSET -3.2298 -1.8647 1.8647
                    CHANNELS 6 Xposition Yposition Zposition Zrotation Xrotation Yrotation
                    JOINT RightHandThumb3
                    {
                      OFFSET -2.6526 -1.5314 1.5314
                      CHANNELS 6 Xposition Yposition Zposition Zrotation Xrotation Yrotation
                      End Site
                      {
                        OFFSET -1.9546 -1.1285 1.1285
                      }
                    }
                  }
                }
              }
            }
          }
        }
      }
    }
  }
  JOINT LeftUpLeg
  {
    OFFSET 8.2078 -6.7517 -1.5996
    CHANNELS 6 Xposition Yposition Zposition Zrotation Xrotation Yrotation
    JOINT LeftLeg
    {
      OFFSET 0 -44.3705 0.2846
      CHANNELS 6 Xposition Yposition Zposition Zrotation Xrotation Yrotation
      JOINT LeftFoot
      {
        OFFSET 0 -44.4279 -2.9822
        CHANNELS 6 Xposition Yposition Zposition Zrotation Xrotation Yrotation
        JOINT LeftToeBase
        {
          OFFSET 0 -8.7287 10.7106
          CHANNELS 6 Xposition Yposition Zposition Zrotation Xrotation Yrotation
          End Site
          {
            OFFSET 0 -0.0007 9.2781
          }
        }
      }
    }
  }
  JOINT RightUpLeg
  {
    OFFSET -8.2078 -6.7517 -1.5996
    CHANNELS 6 Xposition Yposition Zposition Zrotation Xrotation Yrotation
    JOINT RightLeg
    {
      OFFSET 0 -44.3705 0.2862
      CHANNELS 6 Xposition Yposition Zposition Zrotation Xrotation Yrotation
      JOINT RightFoot
      {
        OFFSET 0 -44.4277 -2.9838
        CHANNELS 6 Xposition Yposition Zposition Zrotation Xrotation Yrotation
        JOINT RightToeBase
        {
          OFFSET 0 -8.7287 10.7106
          CHANNELS 6 Xposition Yposition Zposition Zrotation Xrotation Yrotation
          End Site
          {
            OFFSET 0 -0.0007 9.2781
          }
        }
      }
    }
  }
}
MOTION
Frames:	4
Frame Time:	0.0333333
-0.00863835 104.059 1.6015 -0.755655 0.0169989 -2.29926 0 10.1816 0.1315 -0.695354 -0.12923 0.567557 4.44089e-016 10.0835 -1.0008 -0.318749 -0.252231 1.05956 0 9.1 -1.3734 1.77454 -0.208354 1.43049 0 16.6717 -2.5162 3.83962 8.44707 0.0118738 0 9.6179 1.685 -5.57369 -6.61424 -3.14399 8.88178e-016 17.8152 2.585 -4.34841e-017 -1.98785e-016 -0 3.0676 6.4095 9.2836 -4.34841e-017 -1.98785e-016 -0 -3.0676 6.4095 9.2835 -4.34841e-017 -1.98785e-016 -0 4.5704 10.946 -2.628 -11.9648 -2.47778 -11.4025 10.5924 -0.5246 -2.2321 -74.1519 31.96 6.08684 27.8415 -0.0001 0 -0.000200597 1.53184e-006 -9.29117 28.3288 0 0 -2.18262 -11.6864 5.63756 2.4661 -1.575 2.6824 9.03958 -2.2623 4.13716 3.2298 -1.8647 1.8647 0.574418 12.7455 25.7666 2.6526 -1.5315 1.5315 3.89133 -18.693 -14.0779 9.1093 -0.5171 2.2601 -18.9804 -1.02567 5.17278 3.6764 -3.9968e-015 -1.77636e-015 -16.0005 -0.226497 1.61148 2.8831 7.10543e-015 0 -6.57038 -0.0383956 0.668866 9.5334 0 3.55271e-015 -20.0393 -1.10434 4.3151 3.6982 2.66454e-015 1.77636e-015 -16.9978 -0.255406 1.70906 2.9509 3.55271e-015 0 -6.56574 -0.0383393 0.668397 9.1045 -0.0439 -1.8651 -24.6603 -1.44441 0.0935107 3.154 0 0 -21.0974 -0.39194 2.10454 2.9377 0 -1.77636e-015 -6.55665 -0.038237 0.667469 8.0778 -0.4887 -3.8061 -25.8845 -1.48839 -4.44272 3.6 3.55271e-015 8.88178e-016 -22.131 -0.43082 2.20265 2.1142 0 0 -6.55093 -0.0381682 0.666888 -4.57 10.9462 -2.628 11.8215 -2.15384 0.378673 -10.5928 -0.5248 -2.2321 70.8295 42.9406 -2.18538 -27.8415 0 0 1.07043e-005 8.37092e-006 10.8252 -28.3288 0 0.0001 0.116873 -14.4142 0.566283 -8.0767 -0.4885 -3.806 32.9852 -1.92945 1.3598 -3.6 -3.55271e-015 0.0001 30.248 -0.631263 -2.33697 -2.1142 0 0 5.97094 -0.0251711 -0.482743 -9.1036 -0.0439 -1.8651 27.0619 -1.49722 -0.682159 -3.154 1.77636e-015 -1.33227e-015 24.3829 -0.414025 -1.91616 -2.9377 -1.42109e-014 8.88178e-016 5.97089 -0.0251756 -0.482728 -9.5325 -3.55271e-015 1.11022e-015 22.4577 -1.17879 -5.62496 -3.6982 -5.32907e-015 0 20.2104 -0.285773 -1.6034 -2.9509 3.55271e-015 0 5.97083 -0.025175 -0.484746 -9.1083 -0.5168 2.2601 15.5667 -0.730962 -6.4266 -3.6764 1.77636e-015 8.88178e-016 13.6197 -0.130495 -1.09282 -2.8831 0 0 5.97041 -0.0251787 -0.482687 -2.4648 -1.5727 2.6826 -19.3663 -4.93434 -6.6349 -3.2298 -1.8647 1.8647 5.59869 9.93417 -16.5354 -2.6526 -1.5314 1.5314 -16.6644 -19.5767 7.84556 8.2078 -6.7517 -1.5996 2.10329 -5.79607 11.1526 0 -44.3705 0.2846 -0.165379 7.45859 -3.22794 -1.77636e-015 -44.4279 -2.9822 0.0483917 -1.49852 6.11447 -1.77636e-015 -8.7287 10.7106 -7.06419e-008 -0.00096921 1.67228e-006 -8.2078 -6.7517 -1.5996 1.26106 -3.52845 0.737329 0 -44.3705 0.2862 0.0640462 3.60357 -5.28953 -8.88178e-016 -44.4277 -2.9838 -0.516322 -0.103586 2.81149 8.88178e-016 -8.7287 10.7106 4.55858e-008 -0.00903678 1.27748e-006 
-0.0894885 104.06 1.7992 -0.758535 -0.00268525 -2.24291 2.22045e-016 10.1816 0.1315 -0.711856 -0.152239 0.541079 4.44089e-016 10.0835 -1.0008 -0.318751 -0.273678 1.04012 -4.44089e-016 9.1 -1.3734 1.77456 -0.230481 1.41121 0 16.6717 -2.5162 3.84211 8.4058 0.0142496 1.77636e-015 9.6179 1.685 -5.62265 -6.824 -3.15123 0 17.8152 2.585 -2.01891e-016 9.93923e-017 -1.98785e-016 3.0676 6.4095 9.2836 -2.01891e-016 9.93923e-017 -1.98785e-016 -3.0676 6.4095 9.2835 -2.01891e-016 9.93923e-017 -1.98785e-016 4.5704 10.946 -2.628 -11.852 -2.48724 -11.4083 10.5924 -0.5246 -2.2321 -74.5122 31.9046 6.40107 27.8415 -0.0001 0 -0.000205727 -2.59911e-006 -9.38044 28.3288 0 0 -2.376 -11.5632 5.94009 2.4661 -1.575 2.6824 9.03958 -2.2623 4.13716 3.2298 -1.8647 1.8647 0.585836 12.7636 25.8499 2.6526 -1.5315 1.5315 3.9347 -18.666 -13.985 9.1093 -0.5171 2.2601 -19.0689 -1.03212 5.18026 3.6764 8.88178e-016 0 -16.0893 -0.228998 1.62018 2.8831 -3.55271e-015 0 -6.65915 -0.0394393 0.677856 9.5334 0 0 -20.1279 -1.11094 4.32245 3.6982 0 0 -17.0865 -0.258057 1.71771 2.9509 -3.55271e-015 -3.55271e-015 -6.65451 -0.0393784 0.677398 9.1045 -0.0439 -1.8651 -24.7485 -1.45155 0.100287 3.154 3.55271e-015 -1.77636e-015 -21.1867 -0.395232 2.11304 2.9377 0 0 -6.64542 -0.0392718 0.676477 8.0778 -0.4887 -3.8061 -25.972 -1.4956 -4.43616 3.6 -1.77636e-015 0 -22.222 -0.434319 2.21124 2.1142 0 -1.77636e-015 -6.6397 -0.039206 0.675889 -4.57 10.9462 -2.628 11.7945 -2.16538 0.319903 -10.5928 -0.5248 -2.2321 70.9891 42.9355 -2.34401 -27.8415 -3.55271e-015 0 1.08669e-005 -1.46744e-006 10.9053 -28.3288 0 0.0001 0.0899894 -14.6029 0.496899 -8.0767 -0.4885 -3.806 33.0735 -1.93634 1.35565 -3.6 -3.55271e-015 0.0001 30.3378 -0.634927 -2.34324 -2.1142 0 1.33227e-015 6.05987 -0.0259353 -0.48991 -9.1036 -0.0439 -1.8651 27.1504 -1.50367 -0.687011 -3.154 -1.77636e-015 1.55431e-015 24.4721 -0.417009 -1.92275 -2.9377 0 -4.44089e-016 6.05981 -0.0259327 -0.489897 -9.5325 0 1.33227e-015 22.5464 -1.18483 -5.63033 -3.6982 0 0 20.2994 -0.288273 -1.61016 -2.9509 -3.55271e-015 -8.88178e-016 6.05974 -0.0259349 -0.491924 -9.1083 -0.5168 2.2601 15.6553 -0.736324 -6.43264 -3.6764 2.66454e-015 8.88178e-016 13.7088 -0.132204 -1.09984 -2.8831 -3.55271e-015 0 6.05934 -0.0259269 -0.489857 -2.4648 -1.5727 2.6826 -19.3663 -4.93434 -6.6349 -3.2298 -1.8647 1.8647 5.58381 9.95176 -16.6197 -2.6526 -1.5314 1.5314 -16.6985 -19.5461 7.75388 8.2078 -6.7517 -1.5996 2.16568 -5.70076 11.2087 1.77636e-015 -44.3705 0.2846 -0.172094 7.54514 -3.33583 1.77636e-015 -44.4279 -2.9822 0.0106984 -1.57885 6.11292 -1.77636e-015 -8.7287 10.7106 6.36125e-008 -0.0609666 -5.12629e-006 -8.2078 -6.7517 -1.5996 1.27526 -3.35702 0.679434 -8.88178e-016 -44.3705 0.2862 0.113257 3.56741 -5.32055 -8.88178e-016 -44.4277 -2.9838 -0.571769 -0.226059 2.81575 0 -8.7287 10.7106 3.17712e-007 -0.388729 -1.21968e-006 
-0.153981 104.062 1.97754 -0.754945 0.0169884 -2.2523 0 10.1816 0.1315 -0.730278 -0.170626 0.533376 4.44089e-016 10.0835 -1.0008 -0.324657 -0.290962 1.03693 -8.88178e-016 9.1 -1.3734 1.7684 -0.247825 1.40847 -5.55112e-017 16.6717 -2.5162 3.86276 8.33982 0.0156389 0 9.6179 1.685 -5.65055 -7.05265 -3.14867 -8.88178e-016 17.8152 2.585 -2.48481e-016 0 -0 3.0676 6.4095 9.2836 -2.48481e-016 0 -0 -3.0676 6.4095 9.2835 -2.48481e-016 0 -0 4.5704 10.946 -2.628 -11.7745 -2.48998 -11.4318 10.5924 -0.5246 -2.2321 -74.7183 31.8085 6.7015 27.8415 -0.0001 -3.55271e-015 -0.000212275 9.33936e-007 -9.49105 28.3288 0 1.77636e-015 -2.43711 -11.5226 6.03999 2.4661 -1.575 2.6824 9.03958 -2.2623 4.13716 3.2298 -1.8647 1.8647 0.617687 12.8154 26.088 2.6526 -1.5315 1.5315 4.05717 -18.5887 -13.7202 9.1093 -0.5171 2.2601 -19.3217 -1.05054 5.2015 3.6764 0 3.55271e-015 -16.3427 -0.236227 1.64501 2.8831 -7.10543e-015 -3.55271e-015 -6.91253 -0.0424921 0.703534 9.5334 0 1.77636e-015 -20.3806 -1.12976 4.34336 3.6982 8.88178e-016 -1.77636e-015 -17.3398 -0.26571 1.74241 2.9509 7.10543e-015 -3.55271e-015 -6.90789 -0.042432 0.703061 9.1045 -0.0439 -1.8651 -25.0004 -1.47194 0.119554 3.154 -1.77636e-015 -1.77636e-015 -21.4415 -0.404688 2.13728 2.9377 -7.10543e-015 0 -6.8988 -0.0423185 0.702142 8.0778 -0.4887 -3.8061 -26.2211 -1.51624 -4.41366 3.6 -1.77636e-015 0 -22.4817 -0.444404 2.23576 2.1142 -7.10543e-015 0 -6.89309 -0.0422559 0.701566 -4.57 10.9462 -2.628 11.8136 -2.1672 0.290184 -10.5928 -0.5248 -2.2321 71.0186 42.9254 -2.35537 -27.8415 -3.55271e-015 0 -2.24722e-006 -1.51379e-005 10.7852 -28.3288 3.55271e-015 0.0001 0.0191762 -14.4953 0.612389 -8.0767 -0.4885 -3.806 33.3255 -1.95608 1.34385 -3.6 -3.55271e-015 0.0001 30.5941 -0.645459 -2.36116 -2.1142 -7.10543e-015 -8.88178e-016 6.31373 -0.0281473 -0.510339 -9.1036 -0.0439 -1.8651 27.4033 -1.52215 -0.700832 -3.154 3.55271e-015 2.22045e-016 24.7268 -0.425603 -1.94151 -2.9377 0 4.44089e-016 6.31367 -0.0281427 -0.510353 -9.5325 0 8.88178e-016 22.7996 -1.20216 -5.64561 -3.6982 -1.77636e-015 8.88178e-016 20.5534 -0.29546 -1.62945 -2.9509 7.10543e-015 -1.77636e-015 6.31362 -0.0281471 -0.512367 -9.1083 -0.5168 2.2601 15.9084 -0.75168 -6.44986 -3.6764 -8.88178e-016 0 13.9633 -0.137142 -1.11986 -2.8831 -3.55271e-015 0 6.31319 -0.0281444 -0.510308 -2.4648 -1.5727 2.6826 -19.3663 -4.93434 -6.6349 -3.2298 -1.8647 1.8647 5.54238 10.0018 -16.8606 -2.6526 -1.5314 1.5314 -16.7945 -19.4539 7.49433 8.2078 -6.7517 -1.5996 2.18945 -5.63671 11.2321 1.77636e-015 -44.3705 0.2846 -0.148147 7.6019 -3.32381 -3.55271e-015 -44.4279 -2.9822 0.0176622 -1.71188 6.11318 -1.77636e-015 -8.7287 10.7106 -2.16535e-007 -0.0269211 1.2662e-006 -8.2078 -6.7517 -1.5996 1.27961 -3.24038 0.639641 -8.88178e-016 -44.3705 0.2862 0.159431 3.51855 -5.27735 -8.88178e-016 -44.4277 -2.9838 -0.620796 -0.318173 2.81563 0 -8.7287 10.7106 -1.81302e-007 -1.00083 -1.27764e-006 
-0.207497 104.038 2.13022 -0.709308 0.0775957 -2.30155 0 10.1816 0.1315 -0.784677 -0.184216 0.534591 -4.44089e-016 10.0835 -1.0008 -0.347132 -0.304319 1.0403 -4.44089e-016 9.1 -1.3734 1.74575 -0.26095 1.41206 -5.55112e-017 16.6717 -2.5162 3.87998 8.26356 0.0237004 -1.77636e-015 9.6179 1.685 -5.63561 -7.29634 -3.14339 0 17.8152 2.585 1.21134e-016 0 1.98785e-016 3.0676 6.4095 9.2836 1.21134e-016 0 1.98785e-016 -3.0676 6.4095 9.2835 1.21134e-016 0 1.98785e-016 4.5704 10.946 -2.628 -11.7711 -2.48667 -11.4495 10.5924 -0.5246 -2.2321 -74.7258 31.7018 6.9087 27.8415 -0.0001 0 -0.000213492 1.59726e-005 -9.53792 28.3288 -3.55271e-015 0 -2.41029 -11.3356 6.12979 2.4661 -1.575 2.6824 9.03958 -2.2623 4.13716 3.2298 -1.8647 1.8647 0.664992 12.9007 26.4629 2.6526 -1.5315 1.5315 4.24559 -18.4615 -13.3063 9.1093 -0.5171 2.2601 -19.7192 -1.07977 5.23478 3.6764 2.66454e-015 0 -16.7413 -0.24781 1.68401 2.8831 3.55271e-015 0 -7.31115 -0.0475264 0.743895 9.5334 -7.10543e-015 1.77636e-015 -20.7782 -1.1596 4.37609 3.6982 -1.77636e-015 -1.77636e-015 -17.7383 -0.277965 1.78119 2.9509 -1.06581e-014 0 -7.3065 -0.0474687 0.743414 9.1045 -0.0439 -1.8651 -25.3967 -1.50421 0.149696 3.154 -1.77636e-015 -1.77636e-015 -21.8424 -0.419778 2.17532 2.9377 7.10543e-015 0 -7.29743 -0.0473451 0.742495 8.0778 -0.4887 -3.8061 -26.6131 -1.54888 -4.37845 3.6 1.77636e-015 -8.88178e-016 -22.8902 -0.460492 2.27424 2.1142 -7.10543e-015 1.77636e-015 -7.29173 -0.0472704 0.741933 -4.57 10.9462 -2.628 11.8269 -2.16753 0.280326 -10.5928 -0.5248 -2.2321 70.9757 42.813 -2.1602 -27.8415 0 0 -8.30561e-006 -3.36543e-006 10.4353 -28.3288 3.55271e-015 0.0001 0.00119032 -14.1867 0.703569 -8.0767 -0.4885 -3.806 33.7216 -1.98724 1.32157 -3.6 0 0.0001 30.9974 -0.662188 -2.38926 -2.1142 0 4.44089e-016 6.7131 -0.0318175 -0.542481 -9.1036 -0.0439 -1.8651 27.8011 -1.55133 -0.722393 -3.154 0 4.44089e-016 25.1275 -0.439288 -1.97096 -2.9377 0 0 6.71308 -0.031817 -0.542476 -9.5325 7.10543e-015 8.88178e-016 23.198 -1.22955 -5.66947 -3.6982 -1.77636e-015 8.88178e-016 20.9531 -0.306935 -1.65972 -2.9509 0 -1.77636e-015 6.71302 -0.0318177 -0.544504 -9.1083 -0.5168 2.2601 16.3066 -0.775997 -6.47682 -3.6764 -1.33227e-015 0 14.3637 -0.145077 -1.15131 -2.8831 -7.10543e-015 0 6.7126 -0.0318065 -0.542455 -2.4648 -1.5727 2.6826 -19.3663 -4.93434 -6.6349 -3.2298 -1.8647 1.8647 5.48069 10.0847 -17.2399 -2.6526 -1.5314 1.5314 -16.9421 -19.3084 7.08711 8.2078 -6.7517 -1.5996 2.1823 -5.68476 11.2428 0 -44.3705 0.2846 -0.138683 7.7767 -3.27693 0 -44.4279 -2.9822 0.0327705 -1.90786 6.11377 -1.77636e-015 -8.7287 10.7106 -1.7158e-007 -0.0146358 -1.67217e-006 -8.2078 -6.7517 -1.5996 1.25619 -3.51904 0.631359 0 -44.3705 0.2862 0.170572 4.13077 -5.24351 1.77636e-015 -44.4277 -2.9838 -0.683076 -0.71657 2.80408 1.77636e-015 -8.7287 10.7106 -2.69559e-007 -1.33176 -9.13569e-007 
